<svg xmlns="http://www.w3.org/2000/svg" width="57" height="47" viewBox="0 0 57 47">    <g fill="#fff" fill-rule="evenodd">        <path d="M45.666 40.788c0 2.807-2.357 3.061-3.07 3.072H14.405c-2.805 0-3.06-2.359-3.071-3.072V3.237h34.332v37.551zM.154.368v2.869h8.273v37.551c0 2.403 1.592 5.981 5.978 5.981h28.191c2.404 0 5.978-1.594 5.978-5.981V3.237h8.272V.368H.154z"></path>        <path d="M27.319 16.147h8.929V7.213h-8.929zM17.488 18.919v-.054l.503.044v1.159h.482v-1.622l-1.506-.097.041.569a.83.83 0 0 1 .002.072c0 .194-.052.643-.537.643-.603 0-.693-.62-.693-.99v-.29h-.48v.185c0 .27.055 1.614 1.17 1.614.637 0 1.018-.461 1.018-1.233M17.271 13.829l.713.713h.489v-1.93h-.482v1.234l-.737-.723h-.393v.379c0 .193-.051.644-.516.644-.524 0-.565-.544-.565-.711 0-.29.07-.537.211-.755l.044-.068h-.54l-.013.028a1.989 1.989 0 0 0-.182.803c0 .563.269 1.22 1.031 1.22.518 0 .878-.323.94-.834M17.843 7.412l-.013-.016h-.652l.67.775h-2.511v.517h3.136v-.523l-.63-.753M17.116 17.157v-.518h-.629v-.626l1.986.922v-.54l-1.952-.909-.514-.004v1.157h-.67v.518h.67v.372h.48v-.372h.629M16.578 10.941l.057.085c.243.384.473.746 1.011.746.535 0 .881-.396.881-1.01 0-.312-.101-.638-.264-.852l-.014-.016h-.571l.05.069c.158.216.318.567.318.866a.437.437 0 0 1-.417.425c-.259 0-.441-.291-.573-.503l-.027-.042c-.382-.603-.677-.871-1.419-.871h-.273v1.896h.48v-1.376h.021c.312 0 .541.28.74.583M16.821 27.685c-.16.291-.297.543-.594.543-.331 0-.447-.293-.447-.543 0-.25.116-.543.447-.543.297 0 .436.25.594.543zm1.225 0c0 .127-.026.424-.275.424-.229 0-.379-.306-.429-.424.05-.119.2-.425.429-.425.249 0 .275.297.275.425zm-.957.463c.163.244.37.48.721.48.495 0 .717-.474.717-.943 0-.471-.222-.945-.717-.945-.349 0-.557.237-.721.477-.216-.404-.504-.594-.9-.594-.566 0-.889.387-.889 1.062 0 .674.323 1.06.889 1.06.397 0 .685-.189.9-.597zM16.348 22.623c-.345 0-.568-.215-.568-.547 0-.326.23-.547.572-.547.319 0 .551.228.551.539a.53.53 0 0 1-.555.555zm1.036-.459c0-.098-.012-.187-.036-.274l.158.121c.328.254.643.541.89.806l.077.082v-.67l-.9-.781a1.704 1.704 0 0 0-1.192-.436c-.677 0-1.081.399-1.081 1.069 0 .624.427 1.061 1.039 1.061.586 0 1.045-.43 1.045-.978zM17.843 35.381l-.013-.016h-.652l.67.775h-2.511v.519h3.136v-.524l-.63-.754M15.838 38.326c.312 0 .541.282.74.584l.057.086c.243.384.473.745 1.011.745.535 0 .881-.395.881-1.01 0-.31-.101-.636-.264-.85l-.014-.019h-.571l.05.071c.158.216.318.567.318.865a.438.438 0 0 1-.417.426c-.259 0-.441-.291-.573-.503l-.027-.043c-.382-.602-.677-.869-1.419-.869h-.273v1.895h.48v-1.378h.021M15.875 33.851c-.095-.071-.095-.317-.095-.422 0-.106 0-.352.096-.422.099-.075.485-.12 1.033-.12.253 0 .614.005.839.045.284.049.298.158.298.497 0 .34-.014.449-.298.497a6.273 6.273 0 0 1-.839.046c-.401 0-.912-.032-1.034-.121zm2.652-.422c0-.399-.038-.77-.49-.925-.353-.12-.764-.136-1.082-.136-.769 0-1.26.105-1.459.311-.163.167-.196.5-.196.75s.033.584.195.746c.2.209.691.315 1.46.315.317 0 .728-.014 1.082-.136.452-.155.49-.527.49-.925zM17.991 23.835v1.48a.687.687 0 0 1-.213-.147l-.176-.15c-.408-.348-.975-.748-1.732-.748h-.533v.519h.533c.708 0 1.072.308 1.576.735l.009.007c.114.094.305.249.436.313.165.078.299.084.488.084h.094v-2.093h-.482M16.919 30.533c0-.331.228-.563.556-.563.363 0 .571.205.571.563 0 .329-.222.543-.564.543-.331 0-.563-.223-.563-.543zm1.608 0c0-.646-.428-1.082-1.066-1.082-.583 0-1.023.43-1.023.998 0 .089.014.18.039.263-.387-.272-.725-.61-1.065-.963l-.075-.077v.7l.014.013c.508.482 1.277 1.21 2.056 1.21.691 0 1.12-.407 1.12-1.062z"></path>    </g></svg>
